<?xml version="1.0" encoding="UTF-8" standalone="no"?>
<!-- Created with Inkscape (http://www.inkscape.org/) -->

<svg
   xmlns:dc="http://purl.org/dc/elements/1.1/"
   xmlns:cc="http://creativecommons.org/ns#"
   xmlns:rdf="http://www.w3.org/1999/02/22-rdf-syntax-ns#"
   xmlns:svg="http://www.w3.org/2000/svg"
   xmlns="http://www.w3.org/2000/svg"
   xmlns:sodipodi="http://sodipodi.sourceforge.net/DTD/sodipodi-0.dtd"
   xmlns:inkscape="http://www.inkscape.org/namespaces/inkscape"
   width="720"
   height="330"
   id="svg2"
   sodipodi:version="0.32"
   inkscape:version="0.48.4 r9939"
   version="1.0"
   sodipodi:docname="default.svg.old"
   inkscape:output_extension="org.inkscape.output.svg.inkscape">
  <defs
     id="defs4" />
  <sodipodi:namedview
     id="base"
     pagecolor="#ffffff"
     bordercolor="#666666"
     borderopacity="1.0"
     gridtolerance="10000"
     guidetolerance="10"
     objecttolerance="10"
     inkscape:pageopacity="0.0"
     inkscape:pageshadow="2"
     inkscape:zoom="0.88003809"
     inkscape:cx="490.40724"
     inkscape:cy="124.4655"
     inkscape:document-units="px"
     inkscape:current-layer="layer1"
     height="24px"
     width="24px"
     showgrid="true"
     inkscape:window-width="1366"
     inkscape:window-height="744"
     inkscape:window-x="0"
     inkscape:window-y="24"
     inkscape:snap-nodes="true"
     inkscape:window-maximized="1"
     fit-margin-top="0"
     fit-margin-left="0"
     fit-margin-right="0"
     fit-margin-bottom="0" />
  <metadata
     id="metadata7">
    <rdf:RDF>
      <cc:Work
         rdf:about="">
        <dc:format>image/svg+xml</dc:format>
        <dc:type
           rdf:resource="http://purl.org/dc/dcmitype/StillImage" />
        <dc:title></dc:title>
      </cc:Work>
    </rdf:RDF>
  </metadata>
  <g
     inkscape:label="Layer 1"
     inkscape:groupmode="layer"
     id="layer1"
     transform="translate(-5.7571953,-706.0344)">
    <g
       id="g15405"
       clip-path="url(#id335)"
       transform="matrix(1,0,0,-1,-328.30292,933.75171)">
      <g
         id="g15407"
         transform="matrix(0.0384521,0,0,-0.0384521,58.949158,55.939194)">
        <path
           id="path15409"
           d="m 0,0 -11.3,0 0,-11.5 -5,0 0,28.801 5,0 0,-12.301 0.5,-0.699 10.1,0 0.7,0.5 0,12.5 5,0 0,-28.801 -5,0 L 0,0 z"
           style="fill:#1c4e9d;fill-rule:nonzero;stroke:none"
           inkscape:connector-curvature="0" />
      </g>
      <g
         id="g15411"
         transform="matrix(0.0384521,0,0,-0.0384521,60.075806,56.381393)">
        <path
           id="path15413"
           d="m 0,0 -10.6,28.801 5.1,0 2.4,-6.5 11.5,0 2.4,6.5 L 16.1,28.5 5.5,0 0,0 z M -1,17.7 C -0.1,14 1.1,9.801 2.6,6 4.3,9.5 5.2,13.7 6.5,17.5 L -1,17.7"
           style="fill:#1c4e9d;fill-rule:nonzero;stroke:none"
           inkscape:connector-curvature="0" />
      </g>
      <g
         id="g15415"
         transform="matrix(0.0384521,0,0,-0.0384521,61.883057,55.550842)">
        <path
           id="path15417"
           d="m 0,0 c -4.3,-6.7 -6.8,-14.6 -10.8,-21.6 l -6,0 0,28.801 4.6,0 0.2,-21.601 c 3.8,6.9 7.3,14.3 10.6,21.601 l 6.201,0 0,-28.801 -4.5,0 L 0,0"
           style="fill:#1c4e9d;fill-rule:nonzero;stroke:none"
           inkscape:connector-curvature="0" />
      </g>
      <g
         id="g15419"
         transform="matrix(0.0384521,0,0,-0.0384521,63.478821,55.550842)">
        <path
           id="path15421"
           d="m 0,0 c -3.8,-7.1 -6.699,-14.5 -10.5,-21.6 l -6.3,0 0,28.801 4.8,0 0.301,-21.601 c 3.599,6.9 7.099,14.3 10.5,21.601 l 6.299,0 0,-28.801 -4.799,0.2 L 0,0"
           style="fill:#1c4e9d;fill-rule:nonzero;stroke:none"
           inkscape:connector-curvature="0" />
      </g>
      <g
         id="g15423"
         transform="matrix(0.0384521,0,0,-0.0384521,65.139938,56.223755)">
        <path
           id="path15425"
           d="m 0,0 -0.2,-4.1 -17.8,0 0,28.801 18,0 0,-4.301 -12.899,-0.3 0.199,-7.7 11.301,0 0,-3.8 -11.5,-0.5 L -12.7,0.201 0,0 z"
           style="fill:#1c4e9d;fill-rule:nonzero;stroke:none"
           inkscape:connector-curvature="0" />
      </g>
      <g
         id="g15427"
         transform="matrix(0.0384521,0,0,-0.0384521,66.06279,56.381393)">
        <path
           id="path15429"
           d="m 0,0 -4.8,0 0,28.801 16.3,0 0,-4.301 -11,0 L 0,0 z"
           style="fill:#1c4e9d;fill-rule:nonzero;stroke:none"
           inkscape:connector-curvature="0" />
      </g>
    </g>
    <g
       id="g35751"
       clip-path="url(#id554)"
       transform="matrix(1,0,0,-1,-328.30292,933.75171)">
      <g
         id="g35753"
         transform="matrix(0.0384521,0,0,-0.0384521,58.949158,55.939194)">
        <path
           id="path35755"
           d="m 0,0 -11.3,0 0,-11.5 -5,0 0,28.801 5,0 0,-12.301 0.5,-0.699 10.1,0 0.7,0.5 0,12.5 5,0 0,-28.801 -5,0 L 0,0 z"
           style="fill:#1c4e9d;fill-rule:nonzero;stroke:none"
           inkscape:connector-curvature="0" />
      </g>
      <g
         id="g35757"
         transform="matrix(0.0384521,0,0,-0.0384521,60.075806,56.381393)">
        <path
           id="path35759"
           d="m 0,0 -10.6,28.801 5.1,0 2.4,-6.5 11.5,0 2.4,6.5 L 16.1,28.5 5.5,0 0,0 z M -1,17.7 C -0.1,14 1.1,9.801 2.6,6 4.3,9.5 5.2,13.7 6.5,17.5 L -1,17.7"
           style="fill:#1c4e9d;fill-rule:nonzero;stroke:none"
           inkscape:connector-curvature="0" />
      </g>
      <g
         id="g35761"
         transform="matrix(0.0384521,0,0,-0.0384521,61.883057,55.550842)">
        <path
           id="path35763"
           d="m 0,0 c -4.3,-6.7 -6.8,-14.6 -10.8,-21.6 l -6,0 0,28.801 4.6,0 0.2,-21.601 c 3.8,6.9 7.3,14.3 10.6,21.601 l 6.201,0 0,-28.801 -4.5,0 L 0,0"
           style="fill:#1c4e9d;fill-rule:nonzero;stroke:none"
           inkscape:connector-curvature="0" />
      </g>
      <g
         id="g35765"
         transform="matrix(0.0384521,0,0,-0.0384521,63.478821,55.550842)">
        <path
           id="path35767"
           d="m 0,0 c -3.8,-7.1 -6.699,-14.5 -10.5,-21.6 l -6.3,0 0,28.801 4.8,0 0.301,-21.601 c 3.599,6.9 7.099,14.3 10.5,21.601 l 6.299,0 0,-28.801 -4.799,0.2 L 0,0"
           style="fill:#1c4e9d;fill-rule:nonzero;stroke:none"
           inkscape:connector-curvature="0" />
      </g>
      <g
         id="g35769"
         transform="matrix(0.0384521,0,0,-0.0384521,65.139938,56.223755)">
        <path
           id="path35771"
           d="m 0,0 -0.2,-4.1 -17.8,0 0,28.801 18,0 0,-4.301 -12.899,-0.3 0.199,-7.7 11.301,0 0,-3.8 -11.5,-0.5 L -12.7,0.201 0,0 z"
           style="fill:#1c4e9d;fill-rule:nonzero;stroke:none"
           inkscape:connector-curvature="0" />
      </g>
      <g
         id="g35773"
         transform="matrix(0.0384521,0,0,-0.0384521,66.06279,56.381393)">
        <path
           id="path35775"
           d="m 0,0 -4.8,0 0,28.801 16.3,0 0,-4.301 -11,0 L 0,0 z"
           style="fill:#1c4e9d;fill-rule:nonzero;stroke:none"
           inkscape:connector-curvature="0" />
      </g>
    </g>
    <path
       id="path52181"
       d="m 5.7571953,706.0344 720.0000047,0 0,330 -720.0000047,0 0,-330 z"
       style="fill:#b6b5b5;fill-rule:nonzero;stroke:none"
       inkscape:connector-curvature="0" />
    <g
       transform="matrix(2.1166696,0,0,2.2148216,250.77235,1223.5571)"
       id="g52187">
      <path
         inkscape:connector-curvature="0"
         style="fill:#ffffff;fill-rule:nonzero;stroke:none"
         d="m 0,-170.06272 -0.101,0 0,0.1 0,13.828 c 0,1.705 -0.601,3.267 -1.695,4.404 -1.058,1.1 -2.476,1.707 -3.985,1.707 -1.509,0 -2.922,-0.607 -3.979,-1.707 -1.092,-1.135 -1.691,-2.699 -1.691,-4.404 l 0,-13.828 0,-0.1 -0.1,0 -4.345,0 -0.102,0 0,0.1 0,13.828 c 0,3.039 1.011,5.662 2.925,7.582 1.85,1.859 4.441,2.883 7.292,2.883 2.856,0 5.45,-1.024 7.305,-2.883 1.911,-1.92 2.923,-4.541 2.923,-7.582 l 0,-13.828 0,-0.1 -0.098,0 -4.349,0 z"
         id="path52189" />
    </g>
    <g
       transform="matrix(2.1166696,0,0,2.2148216,332.31519,1262.9618)"
       id="g52191">
      <path
         inkscape:connector-curvature="0"
         style="fill:#ffffff;fill-rule:nonzero;stroke:none"
         d="m 0,-170.06272 c -1.383,1.449 -3.334,2.248 -5.489,2.248 -2.156,0 -4.106,-0.799 -5.489,-2.248 -1.392,-1.463 -2.159,-3.533 -2.159,-5.832 0,-2.307 0.767,-4.385 2.159,-5.848 1.382,-1.453 3.331,-2.252 5.489,-2.252 2.155,0 4.106,0.799 5.489,2.252 1.396,1.465 2.162,3.541 2.162,5.848 0,2.299 -0.766,4.369 -2.162,5.832 m 3.186,-14.822 c -2.312,-2.23501 -5.395,-3.46301 -8.675,-3.46301 -3.285,0 -6.368,1.228 -8.682,3.46301 -2.394,2.312 -3.712,5.506 -3.712,8.99 0,3.481 1.318,6.668 3.712,8.979 2.313,2.228 5.397,3.455 8.682,3.455 3.28,0 6.363,-1.227 8.675,-3.455 2.401,-2.311 3.719,-5.498 3.719,-8.979 0,-3.482 -1.318,-6.676 -3.719,-8.99"
         id="path52193" />
    </g>
    <g
       transform="matrix(2.1166696,0,0,2.2148216,375.87691,1222.4616)"
       id="g52195">
      <path
         inkscape:connector-curvature="0"
         style="fill:#ffffff;fill-rule:nonzero;stroke:none"
         d="m 0,-170.06272 c -2.854,0 -5.448,1.023 -7.299,2.883 -1.914,1.92 -2.924,4.545 -2.924,7.592 l 0,13.828 0,0.099 0.1,0 4.343,0 0.1,0 0,-0.099 0,-13.828 c 0,-1.709 0.603,-3.278 1.696,-4.413 1.061,-1.103 2.476,-1.709 3.984,-1.709 1.508,0 2.925,0.606 3.982,1.709 1.094,1.135 1.693,2.704 1.693,4.413 l 0,13.828 0,0.099 0.1,0 4.355,0 0.101,0 0,-0.099 0,-13.828 c 0,-3.043 -1.012,-5.668 -2.926,-7.592 -1.857,-1.862 -4.45,-2.883 -7.305,-2.883"
         id="path52197" />
    </g>
    <g
       transform="matrix(2.1166696,0,0,2.2148216,520.04351,1223.5571)"
       id="g52199">
      <path
         inkscape:connector-curvature="0"
         style="fill:#ffffff;fill-rule:nonzero;stroke:none"
         d="m 0,-170.06272 -0.102,0 0,0.1 0,15.115 c 0,2.93 -1.627,4.824 -4.146,4.824 -3.014,0 -4.543,-1.857 -4.543,-5.519 l 0,-14.42 0,-0.1 -0.102,0 -4.339,0 -0.1,0 0,0.1 0,14.42 c 0,3.662 -1.529,5.519 -4.547,5.519 -2.517,0 -4.146,-1.894 -4.146,-4.824 l 0,-15.115 0,-0.1 -0.098,0 -4.35,0 -0.097,0 0,0.1 0,16.09 c 0,4.599 3.777,8.203 8.599,8.203 2.889,0 5.398,-1.202 6.916,-3.293 1.502,2.091 4.008,3.293 6.909,3.293 4.816,0 8.587,-3.604 8.587,-8.203 l 0,-16.09 0,-0.1 -0.096,0 -4.345,0 z"
         id="path52201" />
    </g>
    <g
       transform="matrix(2.1166696,0,0,2.2148216,558.82208,1244.4554)"
       id="g52203">
      <path
         inkscape:connector-curvature="0"
         style="fill:#ffffff;fill-rule:nonzero;stroke:none"
         d="m 0,-170.06272 c -2.902,-0.809 -5.408,-1.51 -5.408,-3.108 0.095,-1.344 0.525,-1.984 2.713,-1.984 l 10.966,0 0.098,0 0,-0.1 0,-4.144 0,-0.1 -0.098,0 -10.222,0 c -5.289,0 -8.201,2.315 -8.201,6.52 0,2.15 1.007,3.82 3.08,5.105 1.793,1.111 4.144,1.785 6.224,2.383 3.036,0.871 5.661,1.625 5.661,3.383 0,1.496 -0.838,2.164 -2.713,2.164 l -12.153,0 -0.099,0 0,0.099 0,4.155 0,0.099 0.099,0 12.153,0 c 2.175,0 4.013,-0.57 5.31,-1.65 1.403,-1.166 2.141,-2.916 2.141,-5.065 0,-5.091 -5.295,-6.57 -9.551,-7.757"
         id="path52205" />
    </g>
    <g
       transform="matrix(2.1166696,0,0,2.2148216,268.56736,1243.6203)"
       id="g52207">
      <path
         inkscape:connector-curvature="0"
         style="fill:#ffffff;fill-rule:nonzero;stroke:none"
         d="m 0,-170.06272 0,14.541 0,0.099 0.101,0 4.028,0 0.099,0 0,-0.099 0,-14.541 c 0,-2.702 0.832,-5.803 7.307,-5.803 l 0.1,0 0,-0.1 0,-4.021 0,-0.1 -0.1,0 c -10.037,0 -11.535,6.28 -11.535,10.024"
         id="path52209" />
    </g>
    <g
       transform="matrix(2.1166696,0,0,2.2148216,200.10636,1257.9899)"
       id="g52211">
      <path
         inkscape:connector-curvature="0"
         style="fill:#ffffff;fill-rule:nonzero;stroke:none"
         d="m 0,-170.06272 -0.089,-0.047 -0.045,0.09 c -0.65,1.246 -1.641,2.32 -2.866,3.105 -3.835,2.416 -8.919,1.268 -11.336,-2.558 -1.174,-1.85 -1.553,-4.049 -1.07,-6.194 0.484,-2.142 1.767,-3.968 3.619,-5.136 2.725,-1.721 6.201,-1.678 8.898,0.092 l -7.255,5.951 -0.077,0.062 0.062,0.076 2.484,3.09 0.064,0.078 0.078,-0.064 10.634,-8.736 0.074,-0.063 -0.059,-0.078 -0.068,-0.088 c -1.755,-2.775 -4.502,-4.70901 -7.729,-5.43401 -3.224,-0.726 -6.533,-0.154 -9.317,1.60801 -2.788,1.758 -4.723,4.5 -5.449,7.723 -0.732,3.228 -0.162,6.542 1.599,9.332 3.644,5.759 11.295,7.486 17.063,3.843 1.82,-1.148 3.315,-2.765 4.326,-4.674 l 0.047,-0.089 -0.089,-0.047 -3.499,-1.842 z"
         id="path52213" />
    </g>
    <g
       transform="matrix(2.1166696,0,0,2.2148216,446.35715,1257.9899)"
       id="g52215">
      <path
         inkscape:connector-curvature="0"
         style="fill:#ffffff;fill-rule:nonzero;stroke:none"
         d="m 0,-170.06272 -0.088,-0.047 -0.045,0.09 c -0.652,1.246 -1.644,2.318 -2.869,3.105 -3.832,2.414 -8.919,1.268 -11.34,-2.558 -1.172,-1.852 -1.547,-4.051 -1.062,-6.196 0.482,-2.144 1.767,-3.966 3.614,-5.134 2.73,-1.721 6.204,-1.678 8.897,0.092 l -7.253,5.951 -0.077,0.062 0.065,0.076 2.485,3.09 0.064,0.078 0.077,-0.064 10.634,-8.736 0.076,-0.063 -0.061,-0.08 -0.07,-0.088 0.006,0.01 c -3.645,-5.75601 -11.294,-7.47701 -17.047,-3.834 -2.791,1.756 -4.731,4.498 -5.457,7.719 -0.731,3.23 -0.164,6.543 1.597,9.336 3.651,5.757 11.304,7.482 17.065,3.843 1.824,-1.148 3.322,-2.765 4.33,-4.674 l 0.045,-0.089 -0.09,-0.047 -3.496,-1.842 z"
         id="path52217" />
    </g>
    <g
       id="g56347"
       clip-path="url(#id786)"
       transform="matrix(1,0,0,-1,-328.30292,933.75171)">
      <g
         id="g56349"
         transform="matrix(0.0384521,0,0,-0.0384521,58.949158,55.939194)">
        <path
           id="path56351"
           d="m 0,0 -11.3,0 0,-11.5 -5,0 0,28.801 5,0 0,-12.301 0.5,-0.699 10.1,0 0.7,0.5 0,12.5 5,0 0,-28.801 -5,0 L 0,0 z"
           style="fill:#1c4e9d;fill-rule:nonzero;stroke:none"
           inkscape:connector-curvature="0" />
      </g>
      <g
         id="g56353"
         transform="matrix(0.0384521,0,0,-0.0384521,60.075806,56.381393)">
        <path
           id="path56355"
           d="m 0,0 -10.6,28.801 5.1,0 2.4,-6.5 11.5,0 2.4,6.5 L 16.1,28.5 5.5,0 0,0 z M -1,17.7 C -0.1,14 1.1,9.801 2.6,6 4.3,9.5 5.2,13.7 6.5,17.5 L -1,17.7"
           style="fill:#1c4e9d;fill-rule:nonzero;stroke:none"
           inkscape:connector-curvature="0" />
      </g>
      <g
         id="g56357"
         transform="matrix(0.0384521,0,0,-0.0384521,61.883057,55.550842)">
        <path
           id="path56359"
           d="m 0,0 c -4.3,-6.7 -6.8,-14.6 -10.8,-21.6 l -6,0 0,28.801 4.6,0 0.2,-21.601 c 3.8,6.9 7.3,14.3 10.6,21.601 l 6.201,0 0,-28.801 -4.5,0 L 0,0"
           style="fill:#1c4e9d;fill-rule:nonzero;stroke:none"
           inkscape:connector-curvature="0" />
      </g>
      <g
         id="g56361"
         transform="matrix(0.0384521,0,0,-0.0384521,63.478821,55.550842)">
        <path
           id="path56363"
           d="m 0,0 c -3.8,-7.1 -6.699,-14.5 -10.5,-21.6 l -6.3,0 0,28.801 4.8,0 0.301,-21.601 c 3.599,6.9 7.099,14.3 10.5,21.601 l 6.299,0 0,-28.801 -4.799,0.2 L 0,0"
           style="fill:#1c4e9d;fill-rule:nonzero;stroke:none"
           inkscape:connector-curvature="0" />
      </g>
      <g
         id="g56365"
         transform="matrix(0.0384521,0,0,-0.0384521,65.139938,56.223755)">
        <path
           id="path56367"
           d="m 0,0 -0.2,-4.1 -17.8,0 0,28.801 18,0 0,-4.301 -12.899,-0.3 0.199,-7.7 11.301,0 0,-3.8 -11.5,-0.5 L -12.7,0.201 0,0 z"
           style="fill:#1c4e9d;fill-rule:nonzero;stroke:none"
           inkscape:connector-curvature="0" />
      </g>
      <g
         id="g56369"
         transform="matrix(0.0384521,0,0,-0.0384521,66.06279,56.381393)">
        <path
           id="path56371"
           d="m 0,0 -4.8,0 0,28.801 16.3,0 0,-4.301 -11,0 L 0,0 z"
           style="fill:#1c4e9d;fill-rule:nonzero;stroke:none"
           inkscape:connector-curvature="0" />
      </g>
    </g>
  </g>
</svg>
